<svg width="24px" height="24px" viewBox="-2.5 -2.5 21 20" fill="none" xmlns="http://www.w3.org/2000/svg">
<path d="M15.1121 10.925C15.0067 10.6383 14.8058 10.4848 14.5773 10.3577C14.5343 10.3325 14.4948 10.3124 14.4611 10.2969C14.3929 10.2616 14.3232 10.2275 14.2538 10.1915C13.5413 9.81366 12.9847 9.33706 12.5988 8.77209C12.4892 8.61305 12.3941 8.44445 12.3148 8.26834C12.2818 8.17419 12.2835 8.12072 12.307 8.07187C12.3305 8.03425 12.3615 8.00192 12.3981 7.97694C12.5205 7.89597 12.6468 7.81381 12.7325 7.75841C12.8851 7.65959 13.006 7.58131 13.0839 7.52591C13.3765 7.32131 13.5811 7.10403 13.7089 6.86097C13.7981 6.69312 13.8502 6.50802 13.8615 6.31826C13.8728 6.1285 13.8432 5.93852 13.7745 5.76125C13.5808 5.25131 13.0991 4.93472 12.5156 4.93472C12.3925 4.93461 12.2697 4.9476 12.1494 4.97347C12.1172 4.98047 12.085 4.98781 12.0537 4.99597C12.0591 4.64722 12.0513 4.27909 12.0203 3.91678C11.9103 2.64309 11.4643 1.97544 10.9993 1.44303C10.7015 1.10939 10.3508 0.827126 9.96128 0.607594C9.2555 0.204594 8.45534 0 7.58315 0C6.71096 0 5.9144 0.204594 5.20815 0.607594C4.81761 0.827197 4.46617 1.11002 4.16812 1.44456C3.70312 1.977 3.25712 2.64581 3.14709 3.91834C3.11609 4.28066 3.10834 4.65069 3.11337 4.9975C3.08212 4.98938 3.05021 4.98187 3.01803 4.97503C2.8977 4.94915 2.77495 4.93616 2.65187 4.93628C2.0679 4.93628 1.58546 5.25288 1.39249 5.76281C1.32352 5.94015 1.29354 6.13026 1.30457 6.32021C1.3156 6.51017 1.3674 6.69553 1.45643 6.86369C1.58471 7.10663 1.78931 7.32403 2.08187 7.52862C2.15937 7.58287 2.28065 7.66112 2.43331 7.76112C2.51584 7.81459 2.63643 7.89287 2.75456 7.97112C2.79591 7.99787 2.83108 8.03315 2.85768 8.07459C2.88249 8.12534 2.88324 8.18 2.84643 8.28084C2.76814 8.45324 2.67464 8.61832 2.56706 8.77413C2.18965 9.32628 1.64946 9.79438 0.959744 10.1691C0.594244 10.3628 0.214401 10.4922 0.054057 10.9281C-0.066818 11.2571 0.0122132 11.6314 0.319494 11.9469C0.43227 12.0646 0.563074 12.1636 0.706995 12.2402C1.00644 12.4048 1.32486 12.5322 1.65518 12.6196C1.72336 12.6371 1.78808 12.6661 1.84662 12.7052C1.95859 12.8032 1.94271 12.9509 2.0919 13.1671C2.16678 13.2788 2.26193 13.3756 2.37243 13.4523C2.68553 13.6685 3.03737 13.6821 3.41015 13.6964C3.7469 13.7092 4.12856 13.7239 4.56449 13.8677C4.74506 13.9274 4.93262 14.0428 5.14999 14.1777C5.67196 14.4985 6.38649 14.9375 7.58231 14.9375C8.77812 14.9375 9.49768 14.4962 10.0235 14.1741C10.2393 14.0416 10.4257 13.9272 10.6013 13.8692C11.0372 13.725 11.4189 13.7107 11.7556 13.6979C12.1284 13.6836 12.4802 13.67 12.7933 13.4538C12.9242 13.3625 13.0332 13.2434 13.1126 13.105C13.2199 12.9225 13.2172 12.7951 13.318 12.7059C13.3729 12.6687 13.4337 12.6409 13.4978 12.6238C13.8326 12.5361 14.1554 12.4075 14.4588 12.2409C14.6117 12.1589 14.7493 12.0512 14.8656 11.9224L14.8695 11.9178C15.1578 11.6094 15.2303 11.2458 15.1121 10.925ZM14.0492 11.4962C13.4009 11.8542 12.97 11.8158 12.6348 12.0317C12.35 12.215 12.5186 12.6102 12.3117 12.7528C12.0575 12.9283 11.3061 12.7403 10.3354 13.0609C9.53487 13.3255 9.02415 14.0866 7.58424 14.0866C6.14434 14.0866 5.64562 13.3272 4.83187 13.0589C3.86312 12.7385 3.11024 12.9264 2.85565 12.7509C2.64912 12.6083 2.8169 12.213 2.53249 12.0297C2.1969 11.8139 1.76603 11.8523 1.11812 11.4962C0.705432 11.2683 0.939494 11.1274 1.07706 11.0606C3.42528 9.92372 3.79996 8.16838 3.81662 8.03816C3.83678 7.88047 3.85924 7.75647 3.68565 7.59603C3.51787 7.44103 2.77349 6.98041 2.5669 6.83616C2.22512 6.59747 2.07478 6.35916 2.18565 6.06622C2.26315 5.86356 2.45224 5.78722 2.65062 5.78722C2.71333 5.78741 2.77583 5.79443 2.83703 5.80816C3.21203 5.88941 3.57637 6.07744 3.78678 6.12822C3.81211 6.13471 3.83812 6.13823 3.86428 6.13869C3.97678 6.13869 4.01615 6.08209 4.0084 5.95347C3.9844 5.54309 3.92628 4.74331 3.99096 3.99584C4.07971 2.96744 4.41103 2.45788 4.80471 2.00722C4.99381 1.79059 5.88234 0.851719 7.58149 0.851719C9.28065 0.851719 10.1715 1.78672 10.3606 2.00256C10.7547 2.45322 11.0864 2.96278 11.1743 3.99119C11.2391 4.73866 11.1832 5.53884 11.1569 5.94881C11.148 6.08403 11.1887 6.13403 11.3011 6.13403C11.3272 6.1336 11.3532 6.13009 11.3786 6.12356C11.5893 6.07281 11.9536 5.88488 12.3286 5.8035C12.3897 5.78978 12.4522 5.78276 12.5149 5.78256C12.7145 5.78256 12.9024 5.86006 12.9799 6.06156C13.0907 6.3545 12.9412 6.59281 12.599 6.83153C12.3925 6.97566 11.6481 7.436 11.4803 7.59138C11.3063 7.75181 11.3292 7.87575 11.3493 8.03353C11.366 8.16566 11.7403 9.92103 14.0889 11.056C14.2278 11.1253 14.4619 11.2664 14.0492 11.4962Z" fill="black"/>
</svg>
